<svg xmlns="http://www.w3.org/2000/svg" width="29.756" height="29.261" viewBox="0 0 29.756 29.261">
  <path id="github-mark" d="M14.891,0a15.016,15.016,0,0,0-4.709,29.232c.74.149,1.011-.323,1.011-.72,0-.348-.024-1.54-.024-2.782-4.142.894-5-1.788-5-1.788a3.833,3.833,0,0,0-1.652-2.185c-1.356-.919.1-.919.1-.919A3.123,3.123,0,0,1,6.9,22.378a3.154,3.154,0,0,0,4.339,1.242,3.2,3.2,0,0,1,.937-2.012c-3.3-.348-6.78-1.639-6.78-7.4a5.873,5.873,0,0,1,1.528-4.023,5.456,5.456,0,0,1,.148-3.974s1.257-.4,4.092,1.54a14.2,14.2,0,0,1,7.445,0c2.835-1.937,4.093-1.54,4.093-1.54a5.456,5.456,0,0,1,.148,3.974,5.76,5.76,0,0,1,1.529,4.023c0,5.762-3.476,7.029-6.8,7.4a3.563,3.563,0,0,1,1.011,2.782c0,2.012-.024,3.626-.024,4.123,0,.4.271.87,1.011.721A15.016,15.016,0,0,0,14.891,0Z" fill="#1b4a74" fill-rule="evenodd"/>
</svg>
