<svg xmlns="http://www.w3.org/2000/svg" width="24.233" height="24.233" viewBox="0 0 24.233 24.233">
  <path id="svgviewer-output" d="M24.415,2H3.817A1.817,1.817,0,0,0,2,3.817v20.6a1.817,1.817,0,0,0,1.817,1.817h20.6a1.817,1.817,0,0,0,1.817-1.817V3.817A1.817,1.817,0,0,0,24.415,2ZM9.27,22.6H5.635v-10.9H9.27ZM7.452,9.573a2.12,2.12,0,1,1,2.181-2.12,2.157,2.157,0,0,1-2.181,2.12ZM22.6,22.6H18.963V16.855c0-1.721-.727-2.338-1.672-2.338a2.108,2.108,0,0,0-1.963,2.254.8.8,0,0,0,0,.17V22.6H11.693v-10.9h3.514v1.575a3.768,3.768,0,0,1,3.271-1.7c1.878,0,4.071,1.042,4.071,4.435Z" transform="translate(-2 -2)" fill="#1b4a74"/>
</svg>
