<svg xmlns="http://www.w3.org/2000/svg" width="30.085" height="30.084" viewBox="0 0 30.085 30.084">
  <g id="Twitter_social_icons_-_circle_-_blue" data-name="Twitter social icons - circle - blue" transform="translate(0)">
    <path id="Exclusion_1" data-name="Exclusion 1" d="M-1933.608-4204.916a14.943,14.943,0,0,1-10.636-4.406,14.942,14.942,0,0,1-4.406-10.636,14.942,14.942,0,0,1,4.406-10.636,14.943,14.943,0,0,1,10.636-4.406,14.943,14.943,0,0,1,10.637,4.406,14.943,14.943,0,0,1,4.406,10.636,14.943,14.943,0,0,1-4.406,10.636A14.943,14.943,0,0,1-1933.608-4204.916Zm-8.134-9.312h0a9.6,9.6,0,0,0,5.273,1.559,9.407,9.407,0,0,0,7.29-3.2,10.159,10.159,0,0,0,2.529-6.619c0-.148,0-.3-.007-.443a7.026,7.026,0,0,0,1.725-1.79,7.04,7.04,0,0,1-1.982.544,3.453,3.453,0,0,0,1.517-1.91,6.992,6.992,0,0,1-2.189.836,3.416,3.416,0,0,0-2.519-1.087,3.454,3.454,0,0,0-3.45,3.449,3.164,3.164,0,0,0,.094.788,9.828,9.828,0,0,1-7.114-3.607,3.47,3.47,0,0,0-.465,1.732,3.43,3.43,0,0,0,1.539,2.87,3.384,3.384,0,0,1-1.56-.429v.042a3.469,3.469,0,0,0,2.77,3.385,3.431,3.431,0,0,1-.909.122,3.317,3.317,0,0,1-.651-.065,3.444,3.444,0,0,0,3.22,2.4,6.9,6.9,0,0,1-4.286,1.474A6.112,6.112,0,0,1-1941.743-4214.227Z" transform="translate(1948.65 4235)" fill="#1b4a74"/>
  </g>
</svg>
